<svg width="355" height="115" viewBox="0 0 355 115" fill="none" xmlns="http://www.w3.org/2000/svg">
<g filter="url(#filter0_d_0_878)">
<rect x="40" y="20" width="295" height="55" rx="10" fill="#EFEFEF" shape-rendering="crispEdges"/>
<path d="M64.6468 28.7812C65.5449 26.0172 69.4551 26.0172 70.3532 28.7812L73.0006 36.9291C73.4022 38.1652 74.5541 39.002 75.8538 39.002H84.421C87.3272 39.002 88.5355 42.7209 86.1844 44.4291L79.2533 49.4648C78.2019 50.2287 77.7619 51.5828 78.1635 52.8189L80.8109 60.9668C81.709 63.7307 78.5455 66.0291 76.1944 64.3209L69.2634 59.2852C68.2119 58.5213 66.7881 58.5213 65.7366 59.2852L58.8056 64.3209C56.4545 66.0291 53.291 63.7307 54.1891 60.9668L56.8365 52.8189C57.2381 51.5828 56.7981 50.2287 55.7467 49.4648L48.8156 44.4291C46.4645 42.7209 47.6728 39.002 50.579 39.002H59.1462C60.4459 39.002 61.5978 38.1652 61.9994 36.9291L64.6468 28.7812Z" fill="#FDCF75"/>
<path d="M124.647 28.7812C125.545 26.0172 129.455 26.0172 130.353 28.7812L133.001 36.9291C133.402 38.1652 134.554 39.002 135.854 39.002H144.421C147.327 39.002 148.535 42.7209 146.184 44.4291L139.253 49.4648C138.202 50.2287 137.762 51.5828 138.164 52.8189L140.811 60.9668C141.709 63.7307 138.546 66.0291 136.194 64.3209L129.263 59.2852C128.212 58.5213 126.788 58.5213 125.737 59.2852L118.806 64.3209C116.454 66.0291 113.291 63.7307 114.189 60.9668L116.836 52.8189C117.238 51.5828 116.798 50.2287 115.747 49.4648L108.816 44.4291C106.464 42.7209 107.673 39.002 110.579 39.002H119.146C120.446 39.002 121.598 38.1652 121.999 36.9291L124.647 28.7812Z" fill="#FDCF75"/>
<path d="M184.647 28.7812C185.545 26.0172 189.455 26.0172 190.353 28.7812L193.001 36.9291C193.402 38.1652 194.554 39.002 195.854 39.002H204.421C207.327 39.002 208.535 42.7209 206.184 44.4291L199.253 49.4648C198.202 50.2287 197.762 51.5828 198.164 52.8189L200.811 60.9668C201.709 63.7307 198.546 66.0291 196.194 64.3209L189.263 59.2852C188.212 58.5213 186.788 58.5213 185.737 59.2852L178.806 64.3209C176.454 66.0291 173.291 63.7307 174.189 60.9668L176.836 52.8189C177.238 51.5828 176.798 50.2287 175.747 49.4648L168.816 44.4291C166.464 42.7209 167.673 39.002 170.579 39.002H179.146C180.446 39.002 181.598 38.1652 181.999 36.9291L184.647 28.7812Z" fill="#FDCF75"/>
<path d="M244.647 28.7812C245.545 26.0172 249.455 26.0172 250.353 28.7812L253.001 36.9291C253.402 38.1652 254.554 39.002 255.854 39.002H264.421C267.327 39.002 268.535 42.7209 266.184 44.4291L259.253 49.4648C258.202 50.2287 257.762 51.5828 258.164 52.8189L260.811 60.9668C261.709 63.7307 258.546 66.0291 256.194 64.3209L249.263 59.2852C248.212 58.5213 246.788 58.5213 245.737 59.2852L238.806 64.3209C236.454 66.0291 233.291 63.7307 234.189 60.9668L236.836 52.8189C237.238 51.5828 236.798 50.2287 235.747 49.4648L228.816 44.4291C226.464 42.7209 227.673 39.002 230.579 39.002H239.146C240.446 39.002 241.598 38.1652 241.999 36.9291L244.647 28.7812Z" fill="#FDCF75"/>
<path d="M304.647 28.7812C305.545 26.0172 309.455 26.0172 310.353 28.7812L313.001 36.9291C313.402 38.1652 314.554 39.002 315.854 39.002H324.421C327.327 39.002 328.535 42.7209 326.184 44.4291L319.253 49.4648C318.202 50.2287 317.762 51.5828 318.164 52.8189L320.811 60.9668C321.709 63.7307 318.546 66.0291 316.194 64.3209L309.263 59.2852C308.212 58.5213 306.788 58.5213 305.737 59.2852L298.806 64.3209C296.454 66.0291 293.291 63.7307 294.189 60.9668L296.836 52.8189C297.238 51.5828 296.798 50.2287 295.747 49.4648L288.816 44.4291C286.464 42.7209 287.673 39.002 290.579 39.002H299.146C300.446 39.002 301.598 38.1652 301.999 36.9291L304.647 28.7812Z" fill="#FDCF75"/>
</g>
<defs>
<filter id="filter0_d_0_878" x="0" y="0" width="355" height="115" filterUnits="userSpaceOnUse" color-interpolation-filters="sRGB">
<feFlood flood-opacity="0" result="BackgroundImageFix"/>
<feColorMatrix in="SourceAlpha" type="matrix" values="0 0 0 0 0 0 0 0 0 0 0 0 0 0 0 0 0 0 127 0" result="hardAlpha"/>
<feOffset dx="-10" dy="10"/>
<feGaussianBlur stdDeviation="15"/>
<feComposite in2="hardAlpha" operator="out"/>
<feColorMatrix type="matrix" values="0 0 0 0 0 0 0 0 0 0 0 0 0 0 0 0 0 0 0.15 0"/>
<feBlend mode="normal" in2="BackgroundImageFix" result="effect1_dropShadow_0_878"/>
<feBlend mode="normal" in="SourceGraphic" in2="effect1_dropShadow_0_878" result="shape"/>
</filter>
</defs>
</svg>
